<svg version="1.2" xmlns="http://www.w3.org/2000/svg" viewBox="0 0 24 24" width="24" height="24">
	<title>checkmark-circle-2-outline-svg</title>
	<style>
		.s0 { opacity: 0;fill: #000000 } 
		.s1 { fill: #000000 } 
	</style>
	<g id="Layer 2">
		<g id="checkmark-circle-2">
			<path id="Layer" class="s0" d="m0 0h24v24h-24z"/>
			<path id="Layer" fill-rule="evenodd" class="s1" d="m15.8 2.8c1.2 0.5 2.3 1.2 3.3 2.1 0.9 1 1.6 2.1 2.1 3.3 0.5 1.2 0.8 2.5 0.8 3.8 0 4-2.4 7.7-6.2 9.2-3.7 1.6-8 0.7-10.9-2.1-2.8-2.9-3.7-7.2-2.1-10.9 1.5-3.8 5.2-6.2 9.2-6.2 1.3 0 2.6 0.3 3.8 0.8zm-0.7 16.6q1.4-0.6 2.6-1.7 1.1-1.2 1.7-2.6 0.6-1.5 0.6-3.1c0-3.2-1.9-6.2-4.9-7.4-3-1.2-6.5-0.5-8.8 1.7-2.2 2.3-2.9 5.8-1.7 8.8 1.2 3 4.2 4.9 7.4 4.9q1.6 0 3.1-0.6z"/>
		</g>
	</g>
</svg>